<?xml version="1.0" standalone="no"?>
<!DOCTYPE svg PUBLIC "-//W3C//DTD SVG 20010904//EN"
 "http://www.w3.org/TR/2001/REC-SVG-20010904/DTD/svg10.dtd">
<svg version="1.0" xmlns="http://www.w3.org/2000/svg"
 width="1920.000000pt" height="1080.000000pt" viewBox="0 0 1920.000000 1080.000000"
 preserveAspectRatio="xMidYMid meet">
<metadata>
Created by potrace 1.16, written by Peter Selinger 2001-2019
</metadata>
<g transform="translate(0.000000,1080.000000) scale(0.100000,-0.100000)"
fill="#000000" stroke="none">
<path d="M7370 9229 c-85 -5 -174 -13 -197 -19 -23 -5 -60 -10 -82 -10 -22 0
-43 -4 -46 -10 -3 -5 -19 -10 -35 -10 -16 0 -32 -4 -35 -10 -3 -5 -19 -10 -36
-10 -16 0 -29 -4 -29 -10 0 -5 -13 -10 -30 -10 -16 0 -30 -4 -30 -10 0 -5 -11
-10 -25 -10 -14 0 -25 -4 -25 -10 0 -5 -9 -10 -19 -10 -11 0 -23 -4 -26 -10
-3 -5 -15 -10 -26 -10 -10 0 -19 -4 -19 -10 0 -5 -9 -10 -20 -10 -11 0 -20 -4
-20 -10 0 -5 -9 -10 -20 -10 -11 0 -20 -4 -20 -10 0 -5 -9 -10 -20 -10 -11 0
-20 -4 -20 -10 0 -5 -7 -10 -15 -10 -8 0 -15 -4 -15 -10 0 -5 -7 -10 -15 -10
-8 0 -15 -4 -15 -10 0 -5 -7 -10 -15 -10 -8 0 -15 -4 -15 -8 0 -4 -12 -15 -27
-24 -16 -9 -38 -25 -49 -35 -12 -10 -36 -29 -55 -43 -39 -30 -205 -196 -236
-236 -12 -16 -31 -40 -42 -53 -12 -13 -21 -28 -21 -32 0 -4 -6 -14 -13 -21
-23 -24 -95 -151 -135 -238 -77 -168 -124 -330 -143 -495 -4 -38 -10 -1091
-12 -2340 -3 -1248 -1 -2155 3 -2015 4 140 8 428 9 639 0 211 3 382 6 380 2
-3 5 -53 6 -112 1 -104 2 -107 18 -88 17 20 18 19 15 -29 -1 -28 2 -50 7 -50
5 0 9 18 9 39 0 22 5 41 12 43 6 2 11 21 10 41 -1 20 3 37 8 37 6 0 10 -18 10
-40 0 -29 4 -40 15 -40 8 0 15 7 15 15 0 8 4 15 9 15 5 0 24 12 41 27 26 21
33 24 41 12 6 -9 12 -10 17 -4 7 10 48 35 56 35 3 0 6 -11 8 -25 3 -24 3 -24
36 -8 33 16 59 10 32 -7 -8 -6 -10 -10 -4 -10 5 0 19 7 30 15 23 17 61 20 66
4 4 -12 37 2 65 27 14 13 157 29 173 19 5 -3 10 2 10 12 0 15 2 16 10 3 5 -8
10 -10 10 -5 0 6 5 3 10 -5 8 -12 11 -11 18 10 5 17 9 -8 13 -75 3 -55 6 539
7 1321 1 944 6 1457 13 1530 25 245 123 507 261 692 21 29 36 57 33 62 -4 6
-3 9 2 8 4 -2 55 45 114 103 213 213 479 352 776 404 130 22 3553 23 3682 0
172 -30 335 -87 464 -162 32 -19 63 -31 70 -27 6 4 9 4 5 -1 -10 -11 110 -98
123 -90 5 4 8 3 7 -2 -4 -11 214 -229 225 -225 5 1 6 -2 2 -7 -3 -6 9 -30 28
-53 141 -186 243 -457 268 -713 7 -74 9 -668 6 -1815 -3 -1524 -5 -1713 -20
-1780 -26 -123 -46 -190 -82 -280 -22 -54 -31 -88 -25 -94 6 -6 10 -14 10 -20
0 -5 -7 -1 -15 10 -8 10 -15 14 -15 9 0 -6 -20 -46 -45 -89 -37 -66 -43 -82
-32 -95 10 -14 10 -14 -5 -3 -14 11 -20 7 -49 -35 -47 -68 -181 -206 -269
-276 -41 -33 -74 -64 -72 -69 1 -5 -2 -7 -8 -3 -5 3 -23 -3 -38 -14 -43 -30
-220 -116 -289 -139 -98 -34 -211 -61 -303 -72 -50 -6 -360 -10 -769 -10 -376
0 -682 -2 -680 -4 3 -3 40 -5 84 -6 94 -2 145 -9 145 -20 0 -5 -9 -10 -21 -12
l-21 -3 23 -29 c13 -17 24 -47 27 -77 3 -33 9 -49 18 -49 10 0 14 -13 14 -44
0 -29 7 -52 20 -67 10 -13 19 -20 20 -16 0 11 40 -12 40 -23 0 -6 -9 -10 -20
-10 -17 0 -20 -7 -20 -40 0 -27 4 -40 14 -40 9 0 17 -32 26 -120 9 -88 17
-120 26 -120 10 0 14 13 14 40 0 22 5 40 10 40 6 0 10 -18 10 -40 0 -29 4 -40
15 -40 8 0 15 -4 15 -10 0 -5 -18 -10 -40 -10 -35 0 -40 -3 -40 -22 0 -19 2
-20 10 -8 6 10 10 11 10 3 0 -8 13 -13 30 -13 30 0 41 -14 18 -23 -7 -3 0 -6
16 -6 16 -1 26 -4 22 -8 -4 -5 -697 -10 -1539 -13 -1214 -4 -1053 -5 773 -4
1268 1 2332 5 2365 8 33 4 69 11 80 16 11 5 37 11 58 14 83 13 107 19 113 27
3 5 18 9 35 9 16 0 29 5 29 10 0 6 14 10 30 10 17 0 30 5 30 10 0 6 9 10 19
10 11 0 23 4 26 10 3 5 15 10 26 10 10 0 19 5 19 10 0 6 11 10 25 10 14 0 25
5 25 10 0 6 7 10 15 10 8 0 15 5 15 10 0 6 9 10 21 10 14 0 19 5 16 14 -4 10
-1 13 8 10 8 -3 28 4 44 15 16 12 34 21 40 21 6 0 11 5 11 10 0 6 7 10 15 10
8 0 15 4 15 8 0 5 11 15 25 22 14 8 24 19 21 26 -3 8 1 11 9 8 8 -3 21 0 29 8
7 7 33 29 56 48 73 60 188 180 221 230 9 14 26 36 38 49 11 13 21 28 21 33 0
4 7 8 15 8 8 0 15 9 15 19 0 11 6 26 14 33 7 8 24 34 36 58 12 24 29 50 36 58
8 7 14 22 14 33 0 10 5 19 10 19 6 0 10 7 10 15 0 8 9 35 21 60 12 26 18 53
15 67 -3 13 -3 17 0 11 9 -20 24 -15 24 8 0 11 11 54 25 94 23 68 31 107 58
260 6 39 11 818 14 2275 4 2197 2 2429 -28 2575 -31 149 -90 336 -104 331 -6
-2 -10 8 -10 23 0 15 -5 25 -12 24 -7 -2 -10 4 -7 11 6 14 -69 169 -93 194 -6
6 -15 21 -18 32 -3 11 -10 20 -14 20 -4 0 -13 11 -19 24 -6 14 -20 35 -31 48
-11 13 -29 34 -40 47 -12 13 -21 28 -21 34 0 5 -7 6 -16 3 -9 -3 -12 -2 -9 4
7 12 -123 142 -210 210 -31 25 -62 50 -68 55 -7 6 -24 16 -39 24 -16 8 -28 18
-28 23 0 4 -7 8 -15 8 -8 0 -15 4 -15 8 0 5 -16 14 -35 22 -19 8 -35 17 -35
22 0 4 -6 8 -13 8 -18 0 -67 24 -67 33 0 4 -7 7 -15 7 -15 0 -25 4 -72 28 -13
7 -30 12 -38 12 -8 0 -15 5 -15 10 0 6 -13 10 -29 10 -17 0 -33 5 -36 10 -3 6
-17 10 -30 10 -13 0 -27 5 -30 10 -3 6 -19 10 -35 10 -16 0 -31 4 -34 9 -3 4
-34 11 -68 15 -35 3 -106 10 -158 16 -120 12 -4343 21 -4560 9z m-1583 -4741
c-3 -7 -5 -2 -5 12 0 14 2 19 5 13 2 -7 2 -19 0 -25z m656 -105 c-24 -2 -43
-8 -43 -14 0 -5 -26 -9 -57 -9 -53 1 -56 2 -39 15 14 11 43 15 100 13 47 -1
63 -3 39 -5z m-230 -40 c-18 -2 -33 -8 -33 -14 0 -5 -4 -9 -10 -9 -5 0 -10 7
-10 15 0 11 11 15 43 13 36 -1 38 -2 10 -5z m-253 -33 c0 -5 -12 -10 -26 -10
-14 0 -23 4 -19 10 3 6 15 10 26 10 10 0 19 -4 19 -10z m4240 -2091 c0 -10 -4
-19 -10 -19 -5 0 -10 12 -10 26 0 14 4 23 10 19 6 -3 10 -15 10 -26z m70 -40
c9 -16 7 -19 -10 -19 -15 0 -20 7 -20 26 0 27 14 25 30 -7z m17 -321 c-2 -13
-4 -3 -4 22 0 25 2 35 4 23 2 -13 2 -33 0 -45z m133 -248 c0 -5 -4 -10 -10
-10 -5 0 -10 5 -10 10 0 6 5 10 10 10 6 0 10 -4 10 -10z"/>
<path d="M7813 7965 c-195 -35 -363 -124 -509 -270 -177 -177 -277 -402 -286
-645 -4 -113 3 -2738 7 -2725 2 6 6 27 10 48 l6 37 82 -2 c46 -1 63 -3 40 -5
-73 -7 -47 -23 36 -23 45 0 81 -4 83 -10 2 -6 55 -13 121 -17 65 -3 124 -11
130 -17 7 -6 24 -17 40 -25 15 -8 27 -18 27 -22 0 -4 36 -10 80 -14 58 -5 80
-11 80 -21 0 -10 12 -14 40 -14 36 0 52 -11 33 -23 -5 -2 -3 -3 3 -1 6 1 28
-1 48 -6 21 -4 36 -4 36 1 0 5 18 9 40 9 22 0 40 -4 40 -10 0 -5 6 -10 14 -10
21 0 105 -38 122 -55 20 -20 36 -19 32 1 -2 10 3 19 11 22 10 3 11 -2 6 -19
-4 -13 -11 -26 -16 -29 -4 -3 -9 -12 -11 -20 -3 -16 33 -21 44 -5 5 6 8 5 8
-3 0 -7 5 -10 10 -7 6 4 1 15 -12 27 -16 13 -18 18 -6 14 32 -10 30 26 -3 58
-18 17 -27 23 -20 14 9 -12 10 -18 2 -18 -6 0 -11 3 -12 8 -3 28 -12 46 -51
98 -25 32 -53 71 -63 87 -15 23 -20 25 -34 15 -14 -11 -14 -11 -3 4 11 14 9
22 -11 56 -39 61 -121 230 -150 307 -70 189 -105 366 -114 575 -20 506 155
966 515 1351 39 42 68 80 64 84 -4 5 -1 5 6 0 9 -5 27 5 50 28 48 45 169 133
257 186 452 272 997 334 1510 171 179 -57 423 -186 565 -299 13 -11 28 -17 32
-14 5 2 7 1 6 -4 -2 -4 22 -30 52 -58 96 -88 169 -167 244 -267 487 -637 498
-1522 29 -2175 -31 -43 -71 -95 -89 -117 -18 -21 -31 -43 -27 -49 3 -6 2 -7
-4 -4 -5 3 -38 -23 -74 -59 -300 -305 -699 -491 -1142 -534 -125 -12 -388 -10
-380 3 2 4 -8 7 -24 7 -33 0 -155 23 -232 44 -30 8 -58 13 -63 10 -4 -3 -8 -1
-8 4 0 14 -41 23 -58 13 -24 -14 -24 -40 1 -33 14 3 18 1 13 -6 -4 -7 -1 -12
8 -12 29 0 26 19 -5 25 -23 5 -28 9 -18 16 20 13 24 12 50 -14 19 -19 34 -23
74 -22 28 1 44 0 38 -2 -7 -3 -13 -15 -13 -29 0 -18 7 -25 33 -32 17 -5 34 -5
35 0 5 11 34 10 52 -2 11 -8 12 -12 3 -18 -7 -4 -10 -17 -7 -29 6 -23 36 -41
42 -24 2 5 10 7 18 4 7 -3 12 -9 9 -13 -7 -12 44 -66 60 -62 7 1 16 -5 19 -15
11 -27 70 -102 81 -103 6 0 19 -17 30 -38 13 -24 28 -38 44 -40 13 -2 33 -12
44 -23 12 -10 24 -19 28 -19 13 0 20 -33 8 -40 -7 -5 2 -16 23 -30 43 -31 59
-47 87 -92 23 -38 23 -38 2 -38 -12 0 -21 -5 -21 -11 0 -6 13 -9 29 -7 16 1
35 -2 42 -8 8 -6 23 -14 34 -18 12 -4 15 -10 9 -14 -17 -11 -13 -42 5 -43 12
0 11 -3 -4 -9 l-20 -9 20 -2 c11 -1 2 -5 -20 -9 -36 -7 -35 -7 12 -5 29 2 55
-1 58 -6 9 -13 1352 -12 1452 2 396 53 714 329 825 714 l23 80 0 1785 0 1785
-28 90 c-116 370 -423 643 -783 695 -112 16 -3460 12 -3551 -5z m3637 -437
c269 -126 270 -504 1 -636 -48 -23 -68 -27 -146 -27 -77 0 -98 4 -147 27 -73
34 -142 103 -176 176 -23 48 -27 71 -27 142 0 71 4 94 27 142 14 31 23 60 20
65 -4 4 -3 5 1 1 10 -8 73 61 69 75 -1 4 2 6 7 3 5 -4 26 3 46 15 67 40 106
49 190 46 60 -2 94 -10 135 -29z m-394 -23 c-1 -8 -5 -17 -8 -21 -5 -4 -4 16
1 34 3 9 9 -1 7 -13z m529 -574 c3 -5 2 -12 -3 -15 -5 -3 -9 1 -9 9 0 17 3 19
12 6z m-525 -377 c0 -8 -19 -13 -24 -6 -3 5 1 9 9 9 8 0 15 -2 15 -3z m134
-162 c3 -5 -1 -9 -9 -9 -8 0 -12 4 -9 9 3 4 7 8 9 8 2 0 6 -4 9 -8z m-3260
-1980 c2 -4 -4 -9 -15 -9 -10 -1 -19 2 -19 8 0 11 27 12 34 1z m106 -78 c0 -8
-19 -13 -24 -6 -3 5 1 9 9 9 8 0 15 -2 15 -3z m40 -60 c0 -3 -7 -12 -15 -21
-20 -19 -32 -10 -14 11 14 15 29 21 29 10z m54 -22 c2 -4 -4 -8 -14 -8 -10 0
-16 4 -14 8 3 4 9 8 14 8 5 0 11 -4 14 -8z m926 -626 c0 -3 -4 -8 -10 -11 -5
-3 -10 -1 -10 4 0 6 5 11 10 11 6 0 10 -2 10 -4z m37 -12 c-3 -3 -12 -4 -19
-1 -8 3 -5 6 6 6 11 1 17 -2 13 -5z m179 -43 c-4 -5 0 -12 6 -14 7 -3 4 -6 -8
-6 -12 -1 -21 5 -21 14 0 8 7 15 14 15 8 0 12 -4 9 -9z m21 -47 c-3 -3 -12 -4
-19 -1 -8 3 -5 6 6 6 11 1 17 -2 13 -5z m58 -54 c3 -5 -3 -10 -14 -10 -12 0
-21 5 -21 10 0 6 6 10 14 10 8 0 18 -4 21 -10z"/>
<path d="M9369 6676 c-190 -34 -343 -95 -509 -204 -99 -65 -283 -239 -275
-259 2 -8 1 -11 -4 -8 -6 3 -30 -23 -55 -58 -263 -369 -310 -871 -120 -1285
48 -104 104 -193 116 -186 7 4 8 2 4 -4 -9 -15 43 -84 57 -75 6 4 7 1 2 -6 -8
-14 33 -63 47 -55 5 3 7 0 6 -8 -2 -7 3 -12 10 -10 8 1 11 -2 8 -7 -8 -13 110
-120 200 -181 153 -103 334 -174 523 -206 185 -30 437 -9 616 51 185 63 370
181 510 327 114 119 178 209 240 340 84 178 114 305 122 509 11 285 -55 524
-213 767 -65 100 -201 243 -305 322 -130 98 -325 185 -504 226 -95 22 -375 27
-476 10z m-584 -325 c3 -5 2 -12 -3 -15 -5 -3 -9 1 -9 9 0 17 3 19 12 6z
m1656 -8 c13 -16 12 -17 -3 -4 -17 13 -22 21 -14 21 2 0 10 -8 17 -17z"/>
<path d="M8237 4123 c-6 -13 19 -54 28 -45 4 4 2 -3 -4 -15 -8 -16 -8 -23 -1
-23 6 0 13 7 16 15 4 8 10 15 15 15 4 0 6 -6 3 -14 -5 -14 22 -31 30 -18 4 7
-67 92 -78 92 -2 0 -7 -3 -9 -7z"/>
<path d="M8339 4038 c-7 -26 -3 -33 18 -34 23 -2 24 -1 7 17 -16 18 -23 22
-25 17z"/>
<path d="M8250 4024 c0 -1 8 -8 17 -15 9 -8 14 -9 10 -2 -4 6 -1 13 5 16 7 3
3 4 -9 4 -13 -1 -23 -2 -23 -3z"/>
<path d="M8406 3972 c6 -4 10 -14 9 -24 -2 -12 3 -15 22 -12 13 3 22 1 19 -4
-3 -5 2 -9 11 -9 10 0 4 10 -18 28 -19 16 -38 29 -44 29 -6 0 -5 -3 1 -8z"/>
<path d="M8489 3899 c-10 -6 -11 -9 -1 -10 6 -1 17 -3 22 -4 6 -1 13 -3 18 -4
4 -1 1 -5 -6 -10 -10 -6 -4 -10 19 -15 18 -3 34 -4 37 -1 3 3 -2 5 -11 5 -9 0
-17 3 -17 8 -1 16 -47 40 -61 31z"/>
<path d="M8585 3830 c-3 -5 0 -10 9 -10 8 0 23 -3 33 -6 16 -6 16 -5 -2 9 -24
19 -32 21 -40 7z"/>
<path d="M8568 3803 c7 -3 16 -2 19 1 4 3 -2 6 -13 5 -11 0 -14 -3 -6 -6z"/>
<path d="M8656 3795 c6 -14 18 -19 37 -16 4 0 7 -3 7 -7 0 -5 7 -9 15 -9 23 0
19 5 -25 27 -31 16 -38 17 -34 5z"/>
<path d="M8734 3748 c-4 -7 -3 -8 4 -4 6 4 25 0 42 -9 16 -8 30 -13 30 -11 0
6 -55 36 -64 36 -3 0 -8 -5 -12 -12z"/>
<path d="M8816 3711 c-8 -12 18 -21 33 -11 10 5 8 9 -4 14 -21 8 -23 8 -29 -3z"/>
<path d="M8774 3695 c11 -8 22 -12 25 -9 6 6 -19 24 -34 24 -5 -1 -1 -7 9 -15z"/>
<path d="M8880 3690 c8 -5 20 -10 25 -10 6 0 3 5 -5 10 -8 5 -19 10 -25 10 -5
0 -3 -5 5 -10z"/>
<path d="M8930 3670 c12 -9 10 -11 -12 -6 -16 4 -30 1 -34 -6 -5 -7 -3 -8 6
-3 7 4 16 2 20 -5 6 -9 14 -8 36 4 16 8 24 15 17 16 -6 0 -20 3 -30 6 -15 5
-16 4 -3 -6z"/>
<path d="M9208 3533 c7 -3 16 -2 19 1 4 3 -2 6 -13 5 -11 0 -14 -3 -6 -6z"/>
<path d="M9120 3450 c0 -5 5 -10 10 -10 6 0 10 5 10 10 0 6 -4 10 -10 10 -5 0
-10 -4 -10 -10z"/>
<path d="M5773 3105 c0 -27 2 -38 4 -22 2 15 2 37 0 50 -2 12 -4 0 -4 -28z"/>
<path d="M9580 3111 c0 -6 5 -13 10 -16 6 -3 10 1 10 9 0 9 -4 16 -10 16 -5 0
-10 -4 -10 -9z"/>
<path d="M5783 2995 c0 -22 2 -30 4 -17 2 12 2 30 0 40 -3 9 -5 -1 -4 -23z"/>
<path d="M5792 2930 c0 -14 2 -19 5 -12 2 6 2 18 0 25 -3 6 -5 1 -5 -13z"/>
<path d="M9730 2910 c0 -5 7 -10 15 -10 8 0 15 5 15 10 0 6 -7 10 -15 10 -8 0
-15 -4 -15 -10z"/>
<path d="M5802 2880 c0 -14 2 -19 5 -12 2 6 2 18 0 25 -3 6 -5 1 -5 -13z"/>
<path d="M5811 2834 c0 -11 3 -14 6 -6 3 7 2 16 -1 19 -3 4 -6 -2 -5 -13z"/>
<path d="M9738 2843 c7 -3 16 -2 19 1 4 3 -2 6 -13 5 -11 0 -14 -3 -6 -6z"/>
<path d="M5821 2794 c0 -11 3 -14 6 -6 3 7 2 16 -1 19 -3 4 -6 -2 -5 -13z"/>
<path d="M5831 2764 c-1 -15 40 -136 45 -131 2 2 -7 35 -20 73 -14 38 -25 64
-25 58z"/>
<path d="M5880 2615 c0 -5 5 -17 10 -25 5 -8 10 -10 10 -5 0 6 -5 17 -10 25
-5 8 -10 11 -10 5z"/>
<path d="M5930 2506 c0 -11 30 -66 36 -66 2 0 -3 15 -12 33 -19 36 -24 44 -24
33z"/>
<path d="M5999 2375 c5 -11 17 -29 26 -40 l16 -20 -10 20 c-5 11 -17 29 -26
40 l-16 20 10 -20z"/>
<path d="M6112 2205 c18 -24 37 -44 41 -45 5 0 -8 20 -29 45 -47 58 -54 58
-12 0z"/>
<path d="M6206 2098 c27 -29 72 -73 99 -98 28 -24 7 0 -45 53 -101 103 -136
132 -54 45z"/>
<path d="M6370 1946 c0 -2 8 -10 18 -17 15 -13 16 -12 3 4 -13 16 -21 21 -21
13z"/>
<path d="M6420 1906 c0 -2 14 -14 30 -26 17 -12 30 -19 30 -16 0 2 -13 14 -30
26 -16 12 -30 19 -30 16z"/>
<path d="M6570 1801 c14 -11 30 -21 35 -21 11 0 -7 14 -40 31 -13 7 -12 3 5
-10z"/>
<path d="M6620 1776 c0 -3 9 -10 20 -16 11 -6 20 -8 20 -6 0 3 -9 10 -20 16
-11 6 -20 8 -20 6z"/>
<path d="M6710 1725 c25 -13 50 -24 55 -24 6 0 -10 11 -35 24 -25 13 -49 24
-55 24 -5 0 10 -11 35 -24z"/>
<path d="M6788 1688 c5 -5 16 -8 23 -6 8 3 3 7 -10 11 -17 4 -21 3 -13 -5z"/>
<path d="M6978 1623 c7 -3 16 -2 19 1 4 3 -2 6 -13 5 -11 0 -14 -3 -6 -6z"/>
<path d="M7058 1603 c6 -2 18 -2 25 0 6 3 1 5 -13 5 -14 0 -19 -2 -12 -5z"/>
<path d="M7118 1593 c7 -3 16 -2 19 1 4 3 -2 6 -13 5 -11 0 -14 -3 -6 -6z"/>
<path d="M7163 1583 c9 -2 25 -2 35 0 9 3 1 5 -18 5 -19 0 -27 -2 -17 -5z"/>
<path d="M7253 1573 c9 -2 25 -2 35 0 9 3 1 5 -18 5 -19 0 -27 -2 -17 -5z"/>
</g>
</svg>
